<svg width="174" height="172" viewBox="0 0 174 172" fill="none" xmlns="http://www.w3.org/2000/svg">
<path d="M86.8118 170.263C74.7594 170.263 63.5578 168.121 53.2069 163.838C42.8561 159.554 33.8523 153.621 26.1955 146.037C18.5387 138.453 12.5479 129.536 8.22325 119.284C3.89857 109.032 1.73624 97.9372 1.73624 86C1.73624 74.2032 3.89857 63.1789 8.22325 52.9269C12.5479 42.675 18.5387 33.7572 26.1955 26.1735C33.8523 18.5899 42.8561 12.6213 53.2069 8.26773C63.5578 3.91416 74.7594 1.73737 86.8118 1.73737C98.7224 1.73737 109.853 3.91416 120.204 8.26773C130.555 12.6213 139.559 18.5899 147.215 26.1735C154.872 33.7572 160.898 42.675 165.294 52.9269C169.69 63.1789 171.887 74.2032 171.887 86C171.887 97.9372 169.69 109.032 165.294 119.284C160.898 129.536 154.872 138.453 147.215 146.037C139.559 153.621 130.555 159.554 120.204 163.838C109.853 168.121 98.7224 170.263 86.8118 170.263ZM86.8118 157.623C107.372 157.623 124.564 150.777 138.389 137.084C152.214 123.392 159.126 106.363 159.126 86C159.126 65.6365 152.214 48.6085 138.389 34.9158C124.564 21.2231 107.372 14.3768 86.8118 14.3768C66.2519 14.3768 49.0595 21.2231 35.2347 34.9158C21.41 48.6085 14.4976 65.6365 14.4976 86C14.4976 106.363 21.41 123.392 35.2347 137.084C49.0595 150.777 66.2519 157.623 86.8118 157.623Z" fill="#F58113"/>
<path d="M83.2091 148.98L119.366 73.1434H91.7166V22.5859L55.5595 98.4222H83.2091V148.98Z" fill="#F58113"/>
<path d="M170.151 86C170.151 74.4251 167.995 63.6357 163.698 53.6126C159.387 43.559 153.487 34.8284 145.995 27.4077C138.502 19.9869 129.686 14.1406 119.531 9.86944C109.406 5.61093 98.5054 3.47475 86.8118 3.47475C74.9733 3.47475 64.0019 5.61187 53.8793 9.86944C43.7246 14.1406 34.9092 19.9872 27.4169 27.4077C19.9267 34.8264 14.0616 43.5529 9.82228 53.6024C5.59316 63.6278 3.47247 74.4212 3.47247 86C3.47247 97.7221 5.59429 108.585 9.82228 118.608C14.0616 128.658 19.9267 137.384 27.4169 144.803C34.9072 152.221 43.7198 158.032 53.8708 162.232C63.9956 166.422 74.9698 168.525 86.8118 168.525C98.5093 168.525 109.413 166.423 119.541 162.232C129.692 158.032 138.504 152.221 145.995 144.803C153.487 137.382 159.387 128.653 163.698 118.6C167.994 108.579 170.151 97.7184 170.151 86ZM157.39 86C157.39 66.0766 150.646 49.5005 137.168 36.1506C123.688 22.7997 106.943 16.1148 86.8118 16.1148C66.6804 16.1148 49.9356 22.7997 36.4559 36.1506C22.9773 49.5005 16.2331 66.0766 16.2331 86C16.2331 105.923 22.9773 122.5 36.4559 135.849C49.9356 149.2 66.6804 155.885 86.8118 155.885C106.943 155.885 123.688 149.2 137.168 135.849C150.646 122.5 157.39 105.923 157.39 86ZM92.1002 20.8909C92.8913 21.0702 93.4532 21.7742 93.4532 22.5859V71.4054H119.366C119.962 71.4054 120.517 71.712 120.835 72.2164C121.153 72.7207 121.189 73.3527 120.933 73.891L84.7754 149.728C84.426 150.46 83.6167 150.854 82.8256 150.675C82.0344 150.496 81.4725 149.792 81.4725 148.98V100.16H55.5595C54.9635 100.16 54.4092 99.8537 54.0912 99.3493C53.7732 98.8449 53.7364 98.2129 53.9929 97.6747L90.1503 21.8376C90.4997 21.1052 91.3091 20.7117 92.1002 20.8909ZM58.3114 96.6855H83.2088C84.1677 96.6855 84.945 97.4634 84.945 98.4229V141.302L116.614 74.8801H91.717C90.7581 74.8801 89.9808 74.1023 89.9808 73.1428V30.2615L58.3114 96.6855ZM160.863 86C160.863 106.803 153.782 124.284 139.611 138.32C125.441 152.354 107.8 159.36 86.8118 159.36C65.8234 159.36 48.1824 152.354 34.0126 138.32C19.8418 124.284 12.7607 106.803 12.7607 86C12.7607 65.1966 19.8418 47.7157 34.0126 33.6803C48.1824 19.6458 65.8234 12.6401 86.8118 12.6401C107.8 12.6401 125.441 19.6458 139.611 33.6803C153.782 47.7157 160.863 65.1966 160.863 86ZM173.624 86C173.624 98.156 171.384 109.485 166.889 119.969C162.408 130.419 156.257 139.525 148.436 147.271C140.613 155.02 131.417 161.076 120.867 165.442C110.293 169.818 98.9353 172 86.8118 172C74.5492 172 63.12 169.819 52.5432 165.442C41.9927 161.076 32.7968 155.02 24.9736 147.271C17.1507 139.523 11.0344 130.414 6.62449 119.96C2.2032 109.479 0 98.1522 0 86C0 73.9854 2.20433 62.7302 6.62449 52.2519C11.0345 41.7976 17.1504 32.6877 24.9736 24.9391C32.7948 17.1927 41.988 11.1021 52.5347 6.66615C63.1137 2.21669 74.5457 0 86.8118 0C98.9392 0 110.3 2.21763 120.877 6.66615C131.424 11.1021 140.615 17.1928 148.436 24.9391C156.257 32.6856 162.408 41.7915 166.889 52.2417C171.383 62.7224 173.624 73.9815 173.624 86Z" fill="#F58113"/>
</svg>
