<svg width="750" height="172" viewBox="0 0 750 172" fill="none" xmlns="http://www.w3.org/2000/svg">
<path d="M239.989 4.94803C248.082 4.94803 255.004 6.49314 260.754 9.58335C266.611 12.6736 271.137 17.149 274.332 23.0098C277.526 28.8705 279.124 36.0632 279.124 44.588V56.0963H222.897C223.11 62.8095 225.08 68.0842 228.807 71.9203C232.641 75.7564 237.912 77.6745 244.621 77.6745C250.265 77.6745 255.377 77.1417 259.956 76.0761C264.535 74.904 269.273 73.1457 274.172 70.8015V89.1829C269.912 91.314 265.387 92.8592 260.595 93.8182C255.909 94.8838 250.212 95.4166 243.503 95.4166C234.771 95.4166 227.05 93.8182 220.342 90.6214C213.633 87.3181 208.362 82.3631 204.528 75.7564C200.694 69.1498 198.778 60.8382 198.778 50.8217C198.778 40.592 200.481 32.1206 203.889 25.4073C207.403 18.5876 212.248 13.4728 218.425 10.0629C224.601 6.65298 231.789 4.94803 239.989 4.94803ZM240.149 21.8909C235.57 21.8909 231.736 23.3827 228.648 26.3664C225.666 29.35 223.909 33.9853 223.377 40.2723H256.761C256.761 36.7559 256.122 33.6124 254.844 30.8419C253.673 28.0713 251.862 25.8869 249.413 24.2885C246.964 22.6901 243.876 21.8909 240.149 21.8909Z" fill="#F58113"/>
<path d="M347.94 4.94803C357.311 4.94803 364.819 7.50545 370.463 12.6203C376.107 17.6285 378.928 25.727 378.928 36.9157V93.8182H355.128V42.8297C355.128 36.5428 354.01 31.8542 351.774 28.764C349.537 25.5672 345.97 23.9688 341.072 23.9688C333.83 23.9688 328.879 26.4729 326.216 31.4812C323.554 36.3829 322.223 43.4691 322.223 52.7397V93.8182H298.423V6.54642H316.632L319.827 17.7351H321.105C323.022 14.7515 325.364 12.3539 328.133 10.5424C330.902 8.62432 333.99 7.23905 337.398 6.38658C340.805 5.42755 344.319 4.94803 347.94 4.94803Z" fill="#F58113"/>
<path d="M439.344 4.94803C447.437 4.94803 454.359 6.49314 460.109 9.58335C465.966 12.6736 470.492 17.149 473.687 23.0098C476.881 28.8705 478.479 36.0632 478.479 44.588V56.0963H422.252C422.465 62.8095 424.436 68.0842 428.163 71.9203C431.996 75.7564 437.267 77.6745 443.976 77.6745C449.62 77.6745 454.732 77.1417 459.311 76.0761C463.89 74.904 468.628 73.1457 473.527 70.8015V89.1829C469.267 91.314 464.742 92.8592 459.95 93.8182C455.264 94.8838 449.567 95.4166 442.858 95.4166C434.126 95.4166 426.406 93.8182 419.697 90.6214C412.988 87.3181 407.717 82.3631 403.883 75.7564C400.049 69.1498 398.133 60.8382 398.133 50.8217C398.133 40.592 399.837 32.1206 403.244 25.4073C406.758 18.5876 411.604 13.4728 417.78 10.0629C423.956 6.65298 431.144 4.94803 439.344 4.94803ZM439.504 21.8909C434.925 21.8909 431.091 23.3827 428.003 26.3664C425.021 29.35 423.264 33.9853 422.732 40.2723H456.116C456.116 36.7559 455.477 33.6124 454.199 30.8419C453.028 28.0713 451.218 25.8869 448.768 24.2885C446.319 22.6901 443.231 21.8909 439.504 21.8909Z" fill="#F58113"/>
<path d="M546.497 4.94803C547.668 4.94803 549.052 5.00131 550.65 5.10788C552.247 5.21444 553.525 5.37427 554.483 5.58739L552.726 27.9648C551.981 27.7516 550.863 27.5918 549.372 27.4852C547.987 27.2721 546.763 27.1656 545.698 27.1656C542.61 27.1656 539.628 27.5918 536.753 28.4443C533.878 29.1902 531.269 30.4156 528.926 32.1206C526.69 33.8255 524.879 36.1165 523.495 38.9936C522.217 41.7641 521.578 45.2273 521.578 49.3831V93.8182H497.778V6.54642H515.828L519.342 21.2516H520.46C522.164 18.2679 524.294 15.5507 526.849 13.0998C529.405 10.6489 532.334 8.6776 535.635 7.18577C539.042 5.69394 542.663 4.94803 546.497 4.94803Z" fill="#F58113"/>
<path d="M597.026 4.94803C602.351 4.94803 607.143 6.01362 611.402 8.14481C615.662 10.276 619.282 13.4728 622.264 17.7351H622.903L624.82 6.54642H644.946V93.978C644.946 102.29 643.296 109.269 639.994 114.917C636.8 120.564 631.955 124.827 625.459 127.704C618.963 130.688 610.923 132.179 601.339 132.179C595.163 132.179 589.412 131.806 584.088 131.061C578.87 130.315 573.758 128.983 568.753 127.065V108.044C572.374 109.536 575.995 110.761 579.615 111.72C583.342 112.786 587.123 113.532 590.956 113.958C594.896 114.491 598.836 114.757 602.776 114.757C608.953 114.757 613.532 113.105 616.514 109.802C619.602 106.499 621.146 101.544 621.146 94.937V93.1788C621.146 91.3673 621.199 89.5025 621.306 87.5845C621.519 85.6664 621.678 83.9615 621.785 82.4697H621.146C618.164 87.0517 614.597 90.355 610.444 92.3796C606.291 94.4043 601.605 95.4166 596.387 95.4166C586.058 95.4166 577.965 91.4739 572.108 83.5885C566.357 75.5966 563.482 64.5145 563.482 50.3421C563.482 40.7518 564.813 32.6001 567.475 25.8869C570.138 19.0671 573.971 13.899 578.976 10.3825C584.088 6.75954 590.104 4.94803 597.026 4.94803ZM604.534 24.2885C600.806 24.2885 597.665 25.3008 595.109 27.3254C592.66 29.2435 590.796 32.1738 589.519 36.1165C588.347 39.9526 587.762 44.8011 587.762 50.6618C587.762 59.3997 589.146 65.953 591.915 70.3219C594.683 74.5843 598.996 76.7155 604.853 76.7155C607.941 76.7155 610.603 76.3425 612.84 75.5966C615.076 74.7441 616.886 73.4121 618.271 71.6006C619.762 69.6826 620.88 67.2317 621.625 64.2481C622.37 61.2644 622.743 57.6414 622.743 53.3791V50.502C622.743 44.215 622.104 39.1535 620.826 35.3173C619.549 31.4812 617.578 28.7107 614.916 27.0057C612.254 25.1942 608.793 24.2885 604.534 24.2885Z" fill="#F58113"/>
<path d="M657.375 6.54642H683.412L699.865 55.6168C700.397 57.2152 700.823 58.8136 701.143 60.412C701.568 62.0103 701.888 63.662 702.101 65.367C702.42 67.0719 702.633 68.8834 702.74 70.8015H703.219C703.539 68.0309 703.964 65.4202 704.497 62.9694C705.136 60.412 705.828 57.9611 706.573 55.6168L722.707 6.54642H748.264L711.365 105.007C709.129 110.974 706.201 115.982 702.58 120.032C699.066 124.081 694.966 127.118 690.281 129.142C685.595 131.167 680.484 132.179 674.946 132.179C672.284 132.179 669.941 132.02 667.918 131.7C666.001 131.487 664.297 131.22 662.806 130.901V112.04C663.978 112.253 665.362 112.466 666.959 112.679C668.663 112.892 670.42 112.999 672.231 112.999C675.532 112.999 678.354 112.306 680.697 110.921C683.146 109.536 685.169 107.618 686.766 105.167C688.364 102.822 689.642 100.265 690.6 97.4945L692.038 93.1788L657.375 6.54642Z" fill="#F58113"/>
<path d="M224.246 105.112H227.587V155.252H224.246V105.112ZM199 140.467C199 137.253 199.642 134.51 200.927 132.239C202.212 129.925 203.925 128.146 206.066 126.904C208.25 125.661 210.649 125.039 213.261 125.039C215.831 125.039 218.036 125.725 219.878 127.096C221.719 128.425 223.154 130.246 224.182 132.56C225.253 134.875 225.788 137.51 225.788 140.467C225.788 143.381 225.253 146.017 224.182 148.374C223.154 150.688 221.719 152.531 219.878 153.902C218.036 155.231 215.831 155.895 213.261 155.895C210.649 155.895 208.25 155.274 206.066 154.031C203.925 152.788 202.212 151.01 200.927 148.695C199.642 146.381 199 143.639 199 140.467ZM202.404 140.467C202.404 143.039 202.897 145.246 203.882 147.088C204.91 148.931 206.28 150.345 207.993 151.331C209.749 152.274 211.655 152.745 213.711 152.745C215.552 152.745 217.265 152.21 218.85 151.138C220.477 150.067 221.784 148.61 222.769 146.767C223.754 144.924 224.246 142.824 224.246 140.467C224.246 138.11 223.754 136.01 222.769 134.168C221.784 132.325 220.477 130.868 218.85 129.796C217.265 128.725 215.552 128.189 213.711 128.189C211.655 128.189 209.749 128.682 207.993 129.668C206.28 130.611 204.91 132.003 203.882 133.846C202.897 135.689 202.404 137.896 202.404 140.467Z" fill="#F58113"/>
<path d="M253.644 155.895C250.988 155.895 248.633 155.231 246.577 153.902C244.522 152.574 242.894 150.753 241.695 148.438C240.539 146.081 239.961 143.403 239.961 140.403C239.961 137.403 240.56 134.746 241.759 132.432C242.958 130.118 244.629 128.318 246.77 127.032C248.911 125.704 251.374 125.039 254.158 125.039C256.856 125.039 259.211 125.661 261.224 126.904C263.28 128.146 264.865 129.882 265.978 132.111C267.134 134.296 267.712 136.825 267.712 139.696C267.712 139.953 267.691 140.232 267.648 140.532C267.648 140.832 267.627 141.089 267.584 141.303H242.08V138.41H265.079L263.665 140.403C263.751 140.189 263.837 139.91 263.922 139.567C264.051 139.182 264.115 138.817 264.115 138.475C264.115 136.46 263.665 134.66 262.766 133.075C261.909 131.489 260.732 130.246 259.233 129.346C257.734 128.446 256.042 127.996 254.158 127.996C251.974 127.996 250.068 128.511 248.44 129.539C246.856 130.525 245.614 131.939 244.714 133.782C243.815 135.582 243.365 137.725 243.365 140.21C243.365 142.739 243.794 144.946 244.65 146.831C245.549 148.717 246.791 150.174 248.376 151.203C250.003 152.231 251.888 152.745 254.029 152.745C256.299 152.745 258.269 152.252 259.939 151.267C261.652 150.281 263.173 148.738 264.5 146.638L267.199 148.374C265.528 150.945 263.58 152.852 261.353 154.095C259.168 155.295 256.599 155.895 253.644 155.895Z" fill="#F58113"/>
<path d="M283.436 169.395H280.096V125.682H283.436V169.395ZM308.683 140.467C308.683 143.639 308.041 146.381 306.756 148.695C305.514 151.01 303.801 152.788 301.617 154.031C299.475 155.274 297.077 155.895 294.422 155.895C291.938 155.895 289.753 155.231 287.869 153.902C285.985 152.531 284.507 150.688 283.436 148.374C282.409 146.017 281.895 143.381 281.895 140.467C281.895 137.51 282.409 134.875 283.436 132.56C284.507 130.246 285.985 128.425 287.869 127.096C289.753 125.725 291.938 125.039 294.422 125.039C297.077 125.039 299.475 125.661 301.617 126.904C303.801 128.146 305.514 129.925 306.756 132.239C308.041 134.51 308.683 137.253 308.683 140.467ZM305.343 140.467C305.343 137.896 304.829 135.689 303.801 133.846C302.773 132.003 301.402 130.611 299.689 129.668C297.976 128.682 296.07 128.189 293.972 128.189C292.173 128.189 290.46 128.725 288.833 129.796C287.205 130.868 285.899 132.325 284.914 134.168C283.929 136.01 283.436 138.11 283.436 140.467C283.436 142.824 283.929 144.924 284.914 146.767C285.899 148.61 287.205 150.067 288.833 151.138C290.46 152.21 292.173 152.745 293.972 152.745C296.07 152.745 297.976 152.274 299.689 151.331C301.402 150.345 302.773 148.931 303.801 147.088C304.829 145.246 305.343 143.039 305.343 140.467Z" fill="#F58113"/>
<path d="M321.892 146.381C321.892 147.838 322.213 149.06 322.856 150.045C323.541 151.031 324.44 151.781 325.554 152.295C326.71 152.767 327.973 153.002 329.344 153.002C331.014 153.002 332.535 152.617 333.905 151.845C335.318 151.074 336.453 149.938 337.31 148.438C338.166 146.938 338.595 145.096 338.595 142.91L339.366 145.738C339.366 148.053 338.809 149.96 337.695 151.46C336.582 152.96 335.19 154.074 333.52 154.802C331.849 155.531 330.158 155.895 328.445 155.895C326.774 155.895 325.168 155.552 323.627 154.867C322.085 154.138 320.843 153.088 319.901 151.717C318.958 150.345 318.487 148.61 318.487 146.51C318.487 143.639 319.472 141.367 321.442 139.696C323.455 138.025 326.175 137.189 329.601 137.189C331.528 137.189 333.177 137.425 334.547 137.896C335.961 138.325 337.117 138.817 338.016 139.374C338.916 139.932 339.558 140.403 339.944 140.789V142.91C338.488 141.881 336.924 141.132 335.254 140.66C333.627 140.146 331.914 139.889 330.115 139.889C328.445 139.889 326.988 140.124 325.746 140.596C324.547 141.067 323.605 141.774 322.92 142.717C322.235 143.66 321.892 144.881 321.892 146.381ZM322.021 131.082L320.35 128.575C321.464 127.804 322.898 127.032 324.654 126.261C326.453 125.447 328.659 125.039 331.271 125.039C333.498 125.039 335.404 125.404 336.989 126.132C338.573 126.861 339.794 127.911 340.65 129.282C341.507 130.653 341.935 132.325 341.935 134.296V155.252H338.595V134.746C338.595 133.889 338.466 133.075 338.209 132.303C337.952 131.489 337.524 130.761 336.924 130.118C336.368 129.475 335.597 128.961 334.612 128.575C333.627 128.189 332.427 127.996 331.014 127.996C329.558 127.996 328.252 128.168 327.096 128.511C325.939 128.854 324.933 129.261 324.076 129.732C323.262 130.203 322.577 130.653 322.021 131.082Z" fill="#F58113"/>
<path d="M359.594 125.682V155.252H356.254V125.682H359.594ZM369.423 129.603C368.781 129.132 368.16 128.789 367.56 128.575C367.003 128.318 366.34 128.189 365.569 128.189C364.113 128.189 362.935 128.596 362.035 129.411C361.179 130.225 360.558 131.318 360.172 132.689C359.787 134.06 359.594 135.582 359.594 137.253H358.053C358.053 134.896 358.417 132.818 359.145 131.018C359.873 129.175 360.858 127.718 362.1 126.646C363.384 125.575 364.798 125.039 366.34 125.039C367.282 125.039 368.16 125.189 368.973 125.489C369.83 125.746 370.601 126.196 371.286 126.839L369.423 129.603Z" fill="#F58113"/>
<path d="M377.599 125.682H390.575V128.832H377.599V125.682ZM382.417 115.397H385.757V155.252H382.417V115.397Z" fill="#F58113"/>
<path d="M438.995 135.839V155.252H435.655V136.225C435.655 133.653 435.162 131.682 434.177 130.311C433.192 128.896 431.672 128.189 429.616 128.189C428.16 128.189 426.832 128.575 425.633 129.346C424.477 130.118 423.556 131.189 422.871 132.56C422.186 133.932 421.843 135.496 421.843 137.253V155.252H418.503V136.225C418.503 133.653 418.01 131.682 417.025 130.311C416.04 128.896 414.52 128.189 412.464 128.189C411.008 128.189 409.68 128.575 408.481 129.346C407.325 130.118 406.404 131.189 405.719 132.56C405.033 133.932 404.691 135.496 404.691 137.253V155.252H401.35V125.682H404.691V131.661C405.462 129.561 406.597 127.932 408.096 126.775C409.595 125.618 411.308 125.039 413.235 125.039C415.376 125.039 417.132 125.661 418.503 126.904C419.873 128.104 420.794 129.753 421.265 131.853C422.121 129.711 423.363 128.039 424.991 126.839C426.618 125.639 428.417 125.039 430.387 125.039C432.229 125.039 433.792 125.468 435.077 126.325C436.361 127.182 437.325 128.425 437.967 130.053C438.653 131.682 438.995 133.61 438.995 135.839Z" fill="#F58113"/>
<path d="M465.407 155.895C462.752 155.895 460.397 155.231 458.341 153.902C456.285 152.574 454.658 150.753 453.459 148.438C452.302 146.081 451.724 143.403 451.724 140.403C451.724 137.403 452.324 134.746 453.523 132.432C454.722 130.118 456.392 128.318 458.534 127.032C460.675 125.704 463.137 125.039 465.921 125.039C468.619 125.039 470.975 125.661 472.988 126.904C475.043 128.146 476.628 129.882 477.742 132.111C478.898 134.296 479.476 136.825 479.476 139.696C479.476 139.953 479.455 140.232 479.412 140.532C479.412 140.832 479.39 141.089 479.348 141.303H453.844V138.41H476.842L475.429 140.403C475.514 140.189 475.6 139.91 475.686 139.567C475.814 139.182 475.879 138.817 475.879 138.475C475.879 136.46 475.429 134.66 474.529 133.075C473.673 131.489 472.495 130.246 470.996 129.346C469.497 128.446 467.806 127.996 465.921 127.996C463.737 127.996 461.831 128.511 460.204 129.539C458.619 130.525 457.377 131.939 456.478 133.782C455.579 135.582 455.129 137.725 455.129 140.21C455.129 142.739 455.557 144.946 456.414 146.831C457.313 148.717 458.555 150.174 460.14 151.203C461.767 152.231 463.651 152.745 465.793 152.745C468.063 152.745 470.033 152.252 471.703 151.267C473.416 150.281 474.936 148.738 476.264 146.638L478.962 148.374C477.292 150.945 475.343 152.852 473.116 154.095C470.932 155.295 468.362 155.895 465.407 155.895Z" fill="#F58113"/>
<path d="M511.132 136.225C511.132 133.696 510.575 131.725 509.461 130.311C508.348 128.896 506.592 128.189 504.194 128.189C502.523 128.189 501.024 128.596 499.697 129.411C498.412 130.182 497.384 131.253 496.613 132.625C495.885 133.996 495.521 135.539 495.521 137.253V155.252H492.181V125.682H495.521V131.853C496.335 129.711 497.555 128.039 499.183 126.839C500.853 125.639 502.78 125.039 504.965 125.039C508.048 125.039 510.404 126.025 512.031 127.996C513.658 129.925 514.472 132.539 514.472 135.839V155.252H511.132V136.225Z" fill="#F58113"/>
<path d="M525.257 125.682H538.234V128.832H525.257V125.682ZM530.075 115.397H533.416V155.252H530.075V115.397Z" fill="#F58113"/>
<path d="M86.8118 170.263C74.7594 170.263 63.5578 168.121 53.2069 163.838C42.8561 159.554 33.8523 153.621 26.1955 146.037C18.5387 138.453 12.5479 129.536 8.22325 119.284C3.89857 109.032 1.73624 97.9372 1.73624 86C1.73624 74.2032 3.89857 63.1789 8.22325 52.9269C12.5479 42.675 18.5387 33.7572 26.1955 26.1735C33.8523 18.5899 42.8561 12.6213 53.2069 8.26773C63.5578 3.91416 74.7594 1.73737 86.8118 1.73737C98.7224 1.73737 109.853 3.91416 120.204 8.26773C130.555 12.6213 139.559 18.5899 147.215 26.1735C154.872 33.7572 160.898 42.675 165.294 52.9269C169.69 63.1789 171.887 74.2032 171.887 86C171.887 97.9372 169.69 109.032 165.294 119.284C160.898 129.536 154.872 138.453 147.215 146.037C139.559 153.621 130.555 159.554 120.204 163.838C109.853 168.121 98.7224 170.263 86.8118 170.263ZM86.8118 157.623C107.372 157.623 124.564 150.777 138.389 137.084C152.214 123.392 159.126 106.363 159.126 86C159.126 65.6365 152.214 48.6085 138.389 34.9158C124.564 21.2231 107.372 14.3768 86.8118 14.3768C66.2519 14.3768 49.0595 21.2231 35.2347 34.9158C21.41 48.6085 14.4976 65.6365 14.4976 86C14.4976 106.363 21.41 123.392 35.2347 137.084C49.0595 150.777 66.2519 157.623 86.8118 157.623Z" fill="#F58113"/>
<path d="M83.2091 148.98L119.366 73.1434H91.7166V22.5859L55.5595 98.4222H83.2091V148.98Z" fill="#F58113"/>
<path d="M303.606 140.468C303.606 138.128 303.14 136.225 302.285 134.692C301.403 133.111 300.258 131.964 298.853 131.19C298.843 131.185 298.834 131.179 298.824 131.173C297.391 130.349 295.786 129.926 293.971 129.926C292.54 129.926 291.155 130.347 289.787 131.248C288.419 132.149 287.304 133.381 286.445 134.987C285.611 136.547 285.173 138.36 285.173 140.468L285.194 141.245C285.289 143.025 285.715 144.583 286.445 145.948C287.304 147.554 288.419 148.787 289.787 149.687C291.155 150.588 292.54 151.007 293.971 151.007C295.79 151.007 297.397 150.603 298.829 149.82C300.248 149.002 301.401 147.826 302.285 146.241C303.14 144.708 303.606 142.807 303.606 140.468ZM170.151 86C170.151 74.4251 167.995 63.6357 163.698 53.6126C159.387 43.559 153.487 34.8284 145.995 27.4077C138.502 19.9869 129.686 14.1406 119.531 9.86944C109.406 5.61093 98.5054 3.47475 86.8118 3.47475C74.9733 3.47475 64.0019 5.61188 53.8793 9.86944C43.7246 14.1406 34.9092 19.9872 27.4169 27.4077C19.9267 34.8264 14.0616 43.5529 9.82228 53.6024C5.59316 63.6278 3.47247 74.4212 3.47247 86C3.47247 97.7221 5.59429 108.585 9.82228 118.608C14.0616 128.658 19.9267 137.384 27.4169 144.803C34.9072 152.221 43.7198 158.032 53.8708 162.232C63.9956 166.422 74.9698 168.525 86.8118 168.525C98.5093 168.525 109.413 166.423 119.541 162.232C129.692 158.032 138.504 152.221 145.995 144.803C153.487 137.382 159.387 128.653 163.698 118.6C167.994 108.579 170.151 97.7184 170.151 86ZM157.39 86C157.39 66.0766 150.646 49.5005 137.168 36.1506C123.688 22.7997 106.943 16.1148 86.8118 16.1148C66.6804 16.1148 49.9356 22.7997 36.4559 36.1506C22.9773 49.5005 16.2331 66.0766 16.2331 86C16.2331 105.923 22.9773 122.499 36.4559 135.849C49.9356 149.2 66.6804 155.885 86.8118 155.885C106.943 155.885 123.688 149.2 137.168 135.849C150.646 122.499 157.39 105.923 157.39 86ZM227.586 103.374C228.545 103.374 229.322 104.152 229.322 105.111V155.252C229.322 156.212 228.545 156.99 227.586 156.99H224.246C223.287 156.989 222.509 156.212 222.509 155.252V153.912C222.013 154.41 221.482 154.873 220.914 155.296C220.907 155.301 220.9 155.307 220.894 155.312C218.718 156.881 216.144 157.633 213.26 157.633C210.36 157.633 207.664 156.938 205.208 155.541L205.195 155.534C202.764 154.123 200.835 152.108 199.409 149.54C197.955 146.921 197.263 143.876 197.263 140.468C197.263 137.023 197.953 133.97 199.416 131.384C200.842 128.821 202.767 126.81 205.195 125.401L205.208 125.393C207.664 123.996 210.36 123.303 213.26 123.303C216.147 123.303 218.72 124.077 220.892 125.686C221.468 126.102 222.007 126.56 222.509 127.056V105.111C222.51 104.152 223.287 103.374 224.246 103.374H227.586ZM254.158 123.303C257.126 123.303 259.802 123.988 262.122 125.417L262.556 125.69C264.682 127.079 266.337 128.96 267.513 131.297L267.75 131.766C268.897 134.124 269.449 136.781 269.449 139.696C269.449 140.014 269.421 140.339 269.378 140.67C269.372 140.999 269.349 141.328 269.286 141.643C269.124 142.456 268.411 143.04 267.584 143.04H245.326C245.514 144.171 245.812 145.189 246.223 146.099C246.997 147.715 248.032 148.905 249.311 149.738C250.629 150.569 252.182 151.007 254.03 151.007C256.042 151.007 257.697 150.573 259.057 149.77L259.074 149.76C260.487 148.947 261.818 147.631 263.033 145.71L263.133 145.568C263.38 145.252 263.73 145.029 264.125 144.942C264.577 144.842 265.05 144.927 265.439 145.178L268.138 146.913C268.526 147.163 268.799 147.558 268.896 148.009C268.993 148.461 268.905 148.933 268.654 149.321C266.86 152.081 264.717 154.206 262.199 155.612L262.189 155.619C259.705 156.983 256.836 157.633 253.643 157.633C250.684 157.633 247.995 156.888 245.635 155.363C243.309 153.859 241.482 151.802 240.153 149.238C240.148 149.227 240.142 149.215 240.136 149.204C238.848 146.577 238.224 143.63 238.224 140.403C238.224 137.167 238.872 134.228 240.218 131.632C241.558 129.045 243.448 127.001 245.877 125.542C248.317 124.035 251.096 123.303 254.158 123.303ZM331.272 123.303C333.682 123.303 335.848 123.695 337.713 124.553C339.58 125.411 341.073 126.68 342.123 128.362C343.186 130.064 343.671 132.072 343.671 134.297V155.252C343.671 156.212 342.894 156.99 341.935 156.99H338.595C337.636 156.99 336.859 156.212 336.859 155.252V154.808C336.056 155.444 335.175 155.975 334.214 156.394C332.339 157.212 330.412 157.633 328.445 157.633C326.53 157.633 324.683 157.237 322.921 156.454C322.909 156.448 322.897 156.444 322.886 156.438C321.074 155.582 319.591 154.332 318.47 152.701C317.283 150.972 316.751 148.869 316.751 146.509C316.751 143.192 317.915 140.411 320.32 138.371L320.334 138.359C322.744 136.358 325.898 135.451 329.602 135.451C331.635 135.451 333.463 135.697 335.049 136.233C335.689 136.427 336.294 136.637 336.859 136.866V134.747C336.859 134.066 336.757 133.438 336.562 132.853C336.559 132.844 336.556 132.835 336.553 132.826C336.377 132.266 336.083 131.762 335.655 131.302C335.64 131.287 335.626 131.271 335.612 131.255C335.28 130.871 334.765 130.5 333.98 130.193C333.251 129.908 332.279 129.733 331.014 129.733C329.692 129.733 328.556 129.889 327.589 130.176C326.526 130.491 325.639 130.855 324.913 131.255C324.16 131.693 323.553 132.095 323.079 132.459C322.698 132.753 322.212 132.874 321.738 132.795C321.263 132.717 320.843 132.446 320.576 132.045L318.906 129.538C318.381 128.749 318.584 127.687 319.362 127.147C320.442 126.399 321.757 125.675 323.287 124.97L323.957 124.67C326.037 123.733 328.497 123.303 331.272 123.303ZM465.922 123.303C468.889 123.303 471.565 123.988 473.886 125.417L474.32 125.69C476.446 127.079 478.101 128.96 479.276 131.297C480.584 133.771 481.212 136.587 481.212 139.696C481.212 140.015 481.184 140.342 481.141 140.675C481.135 141.002 481.114 141.33 481.051 141.643C480.889 142.456 480.174 143.04 479.347 143.04H457.089C457.277 144.171 457.576 145.189 457.988 146.099C458.76 147.711 459.791 148.9 461.067 149.733L461.573 150.028C462.779 150.671 464.173 151.007 465.793 151.007C467.806 151.007 469.461 150.573 470.822 149.77L470.837 149.76C472.251 148.947 473.581 147.631 474.796 145.71L474.896 145.568C475.143 145.252 475.495 145.029 475.89 144.942C476.341 144.842 476.815 144.927 477.204 145.178L479.901 146.913C480.29 147.163 480.562 147.558 480.659 148.009C480.756 148.461 480.67 148.933 480.418 149.321C478.625 152.082 476.481 154.206 473.962 155.612L473.952 155.619C471.468 156.983 468.6 157.633 465.408 157.633C462.448 157.633 459.758 156.888 457.398 155.363C455.072 153.86 453.245 151.802 451.916 149.238C451.911 149.227 451.905 149.215 451.899 149.204C450.611 146.577 449.989 143.63 449.989 140.403C449.989 137.167 450.636 134.228 451.981 131.632C453.321 129.045 455.211 127.001 457.641 125.542C460.08 124.035 462.859 123.303 465.922 123.303ZM366.339 123.303C367.468 123.303 368.552 123.482 369.574 123.859C370.659 124.202 371.629 124.779 372.473 125.571C373.095 126.154 373.202 127.104 372.726 127.811L370.863 130.574C370.599 130.966 370.187 131.235 369.722 131.316C369.256 131.397 368.777 131.283 368.396 131.004C367.857 130.608 367.384 130.357 366.976 130.211C366.928 130.194 366.879 130.174 366.832 130.152C366.555 130.024 366.151 129.926 365.569 129.926C364.462 129.926 363.73 130.224 363.212 130.686C362.633 131.244 362.159 132.04 361.844 133.16C361.509 134.354 361.33 135.714 361.33 137.253V155.252C361.33 156.212 360.553 156.99 359.594 156.99H356.254C355.295 156.99 354.518 156.212 354.518 155.252V125.683C354.518 124.724 355.295 123.946 356.254 123.946H359.594C360.354 123.946 360.998 124.433 361.234 125.113C362.743 123.933 364.459 123.303 366.339 123.303ZM385.758 113.659C386.716 113.659 387.494 114.437 387.494 115.396V123.946H390.575C391.534 123.946 392.311 124.724 392.311 125.683V128.832C392.311 129.792 391.534 130.569 390.575 130.569H387.494V155.252C387.494 156.212 386.717 156.989 385.758 156.99H382.416C381.458 156.989 380.68 156.212 380.68 155.252V130.569H377.599C376.64 130.569 375.863 129.792 375.863 128.832V125.683C375.863 124.724 376.64 123.946 377.599 123.946H380.68V115.396C380.68 114.437 381.458 113.659 382.416 113.659H385.758ZM430.386 123.303C432.503 123.303 434.418 123.798 436.039 124.879C437.657 125.958 438.829 127.503 439.583 129.416C440.368 131.297 440.731 133.453 440.731 135.839V155.252C440.731 156.212 439.954 156.99 438.995 156.99H435.654C434.696 156.989 433.918 156.212 433.918 155.252V136.224C433.918 133.838 433.455 132.282 432.767 131.324C432.762 131.318 432.758 131.311 432.753 131.304C432.159 130.45 431.23 129.926 429.617 129.926C428.496 129.926 427.503 130.215 426.597 130.792L426.273 131.024C425.537 131.591 424.917 132.349 424.423 133.337C423.875 134.434 423.579 135.726 423.579 137.253V155.252C423.579 156.212 422.801 156.99 421.843 156.99H418.502C417.544 156.99 416.766 156.212 416.766 155.252V136.224C416.766 133.838 416.303 132.282 415.615 131.324C415.61 131.318 415.606 131.311 415.601 131.304C415.007 130.45 414.077 129.926 412.465 129.926C411.344 129.926 410.351 130.215 409.445 130.792L409.121 131.024C408.385 131.591 407.765 132.349 407.271 133.337C406.723 134.434 406.427 135.726 406.427 137.253V155.252C406.427 156.212 405.649 156.99 404.69 156.99H401.35C400.391 156.99 399.614 156.212 399.614 155.252V125.683C399.614 124.724 400.391 123.946 401.35 123.946H404.69C405.649 123.946 406.427 124.724 406.427 125.683V125.907C406.623 125.731 406.826 125.562 407.035 125.4C408.844 124.004 410.931 123.303 413.234 123.303C415.734 123.303 417.929 124.039 419.669 125.617C420.405 126.265 421.023 127.01 421.532 127.843C422.23 126.926 423.037 126.121 423.96 125.44C425.878 124.027 428.036 123.303 430.386 123.303ZM504.965 123.303C508.448 123.303 511.344 124.436 513.37 126.889C515.326 129.215 516.208 132.264 516.208 135.839V155.252C516.208 156.212 515.431 156.99 514.472 156.99H511.132C510.173 156.99 509.395 156.212 509.395 155.252V136.224C509.395 133.932 508.89 132.391 508.098 131.385C507.416 130.519 506.25 129.926 504.193 129.926C502.819 129.926 501.639 130.257 500.604 130.892L500.59 130.9C499.588 131.502 498.775 132.337 498.147 133.442C497.566 134.536 497.257 135.793 497.257 137.253V155.252C497.257 156.212 496.48 156.99 495.521 156.99H492.18C491.222 156.99 490.444 156.212 490.444 155.252V125.683C490.444 124.724 491.222 123.946 492.18 123.946H495.521C496.48 123.946 497.257 124.724 497.257 125.683V126.175C497.542 125.917 497.84 125.671 498.152 125.44L498.171 125.429C500.155 124.003 502.441 123.303 504.965 123.303ZM533.416 113.659C534.375 113.659 535.152 114.437 535.152 115.396V123.946H538.233C539.192 123.946 539.969 124.724 539.969 125.683V128.832C539.969 129.792 539.192 130.569 538.233 130.569H535.152V155.252C535.152 156.212 534.375 156.99 533.416 156.99H530.076C529.117 156.99 528.34 156.212 528.34 155.252V130.569H525.257C524.298 130.569 523.521 129.792 523.521 128.832V125.683C523.521 124.724 524.298 123.946 525.257 123.946H528.34V115.396C528.34 114.437 529.117 113.659 530.076 113.659H533.416ZM330.115 141.626C328.613 141.626 327.379 141.836 326.38 142.212C325.455 142.575 324.794 143.092 324.323 143.739C323.909 144.309 323.628 145.143 323.628 146.381C323.628 147.565 323.884 148.43 324.293 149.07C324.791 149.78 325.436 150.32 326.256 150.704C327.173 151.07 328.196 151.265 329.344 151.265C330.735 151.265 331.959 150.946 333.054 150.33L333.074 150.32C334.184 149.714 335.093 148.818 335.802 147.577C336.451 146.44 336.827 144.976 336.852 143.109C336.182 142.793 335.494 142.533 334.783 142.332C334.766 142.327 334.748 142.322 334.731 142.317C333.282 141.859 331.746 141.627 330.115 141.626ZM92.1002 20.8909C92.8913 21.0702 93.4532 21.7742 93.4532 22.5859V71.4054H119.366C119.962 71.4054 120.517 71.712 120.835 72.2164C121.153 72.7207 121.189 73.3528 120.933 73.891L84.7754 149.728C84.426 150.46 83.6167 150.854 82.8256 150.675C82.0344 150.495 81.4725 149.792 81.4725 148.98V100.16H55.5595C54.9635 100.16 54.4092 99.8537 54.0912 99.3493C53.7732 98.8449 53.7364 98.2129 53.9929 97.6747L90.1503 21.8376C90.4997 21.1052 91.3091 20.7117 92.1002 20.8909ZM58.3114 96.6855H83.2088C84.1677 96.6855 84.945 97.4634 84.945 98.4229V141.302L116.614 74.8801H91.717C90.7581 74.8801 89.9808 74.1023 89.9808 73.1428V30.2615L58.3114 96.6855ZM561.745 50.3414C561.745 40.5999 563.097 32.2181 565.862 25.2462C568.624 18.1757 572.645 12.7073 577.978 8.96003C583.413 5.1102 589.787 3.21008 597.026 3.21007C602.588 3.21007 607.651 4.32608 612.179 6.5915C615.822 8.41416 619.008 10.9635 621.744 14.2112L623.109 6.25217L623.142 6.09947C623.343 5.34527 624.027 4.80848 624.819 4.80832H644.945C645.904 4.80832 646.681 5.5865 646.682 6.54569V93.9777C646.682 102.505 644.988 109.799 641.503 115.771L641.505 115.773C638.112 121.77 632.973 126.269 626.181 129.282L626.183 129.283C619.396 132.4 611.092 133.917 601.339 133.917C595.094 133.917 589.261 133.54 583.847 132.782L583.841 132.78C578.493 132.016 573.256 130.651 568.132 128.688C567.461 128.43 567.017 127.784 567.017 127.064V108.045C567.017 107.465 567.306 106.923 567.786 106.601C568.268 106.278 568.878 106.217 569.414 106.438C572.967 107.902 576.515 109.101 580.059 110.04C580.07 110.043 580.082 110.047 580.093 110.05C583.727 111.089 587.411 111.815 591.148 112.23C591.161 112.232 591.175 112.234 591.188 112.235C595.052 112.758 598.916 113.019 602.777 113.019C608.659 113.019 612.684 111.451 615.224 108.637C615.231 108.629 615.239 108.622 615.246 108.615C617.92 105.755 619.409 101.302 619.409 94.9363V93.1785C619.409 91.3331 619.464 89.4361 619.572 87.488C619.573 87.467 619.575 87.4461 619.577 87.4252C617.116 90.2327 614.33 92.4182 611.204 93.942C606.785 96.0962 601.834 97.1538 596.387 97.1538C585.542 97.1537 576.918 92.9777 570.715 84.6257C570.709 84.6188 570.704 84.6107 570.699 84.6037C564.661 76.2118 561.745 64.7243 561.745 50.3414ZM683.412 4.80832L683.687 4.83037C684.317 4.93121 684.851 5.37481 685.059 5.99428L701.51 55.0649L701.512 55.0666C702.062 56.7187 702.503 58.3755 702.836 60.0344C702.944 60.4421 703.047 60.8524 703.142 61.2662C703.696 59.1352 704.287 57.0761 704.919 55.0904L704.924 55.0734L721.057 6.00276C721.291 5.29031 721.957 4.80836 722.706 4.80832H748.263C748.833 4.80832 749.367 5.0883 749.691 5.55654C750.015 6.02489 750.089 6.62294 749.889 7.15649L712.991 105.617C710.695 111.742 707.668 116.938 703.889 121.17L703.891 121.172C700.215 125.407 695.906 128.604 690.969 130.737C686.049 132.864 680.7 133.917 674.946 133.917C672.227 133.917 669.796 133.753 667.666 133.418C665.73 133.201 663.987 132.931 662.443 132.6C661.643 132.429 661.07 131.719 661.07 130.9V112.04C661.07 111.525 661.299 111.037 661.694 110.707C662.089 110.377 662.61 110.238 663.117 110.33C664.25 110.536 665.6 110.744 667.172 110.954C668.801 111.158 670.488 111.261 672.23 111.261C675.286 111.261 677.789 110.622 679.813 109.426L679.843 109.409C682.04 108.166 683.862 106.444 685.313 104.217L685.332 104.188C686.839 101.975 688.05 99.5565 688.96 96.9265L690.188 93.2345L655.763 7.19212C655.549 6.65689 655.615 6.04925 655.938 5.57181C656.261 5.09465 656.799 4.80832 657.375 4.80832H683.412ZM465.922 129.733C464.02 129.733 462.446 130.179 461.132 131.009L461.12 131.014C459.839 131.81 458.808 132.966 458.037 134.545L458.031 134.558C457.711 135.197 457.459 135.901 457.268 136.672H473.989C473.813 135.669 473.488 134.76 473.019 133.932C473.013 133.922 473.008 133.912 473.002 133.902C472.289 132.581 471.326 131.57 470.103 130.836C468.895 130.111 467.516 129.733 465.922 129.733ZM254.158 129.733C252.257 129.733 250.681 130.178 249.367 131.009L249.357 131.014C248.076 131.81 247.045 132.965 246.274 134.545L246.267 134.558C245.948 135.197 245.694 135.901 245.503 136.672H262.226C262.05 135.669 261.725 134.76 261.256 133.932C261.25 133.922 261.245 133.912 261.239 133.902C260.526 132.581 259.563 131.57 258.34 130.836C257.132 130.111 255.753 129.733 254.158 129.733ZM419.947 132.982C420.103 133.77 420.188 134.607 420.22 135.486C420.308 134.793 420.449 134.122 420.647 133.474C420.375 133.37 420.134 133.201 419.947 132.982ZM493.917 135.432C494.026 134.669 494.205 133.931 494.459 133.221C494.219 133.034 494.032 132.789 493.917 132.505V135.432ZM403.086 135.344C403.197 134.543 403.376 133.771 403.636 133.033C403.393 132.846 403.203 132.6 403.086 132.315V135.344ZM693.65 92.5338C693.802 92.9152 693.815 93.3386 693.686 93.7283L692.248 98.0445L692.241 98.0632C691.238 100.962 689.896 103.647 688.219 106.114L688.221 106.116C686.478 108.79 684.252 110.906 681.551 112.434L681.549 112.432C678.893 113.994 675.763 114.736 672.23 114.736C670.352 114.736 668.522 114.626 666.743 114.404L666.73 114.402C665.954 114.298 665.225 114.192 664.543 114.088V129.467C665.233 129.589 665.967 129.704 666.747 129.808L668.11 129.974L668.188 129.984C670.1 130.286 672.35 130.442 674.946 130.442C680.267 130.442 685.142 129.471 689.592 127.548C694.027 125.632 697.918 122.756 701.27 118.893L701.287 118.873C704.741 115.009 707.567 110.196 709.741 104.397L745.759 8.28306H723.963L708.227 56.1423C707.495 58.4421 706.816 60.8508 706.187 63.3666C705.671 65.7472 705.256 68.2912 704.944 70.9999C704.843 71.8764 704.101 72.5385 703.22 72.5387H702.74C701.818 72.5387 701.058 71.8186 701.007 70.8981C700.904 69.0474 700.699 67.3111 700.395 65.6877C700.388 65.6529 700.382 65.6175 700.378 65.5825C700.174 63.9528 699.87 62.3782 699.466 60.859C699.456 60.8237 699.447 60.7878 699.44 60.7521C699.135 59.2268 698.728 57.6982 698.218 56.166L682.163 8.28306H659.941L693.65 92.5338ZM338.79 129.657C339.255 130.295 339.612 130.995 339.855 131.754C339.882 131.835 339.908 131.916 339.933 131.998C339.759 131.318 339.503 130.724 339.178 130.203C339.059 130.013 338.928 129.832 338.79 129.657ZM433.935 127.661C434.567 128.092 435.129 128.639 435.602 129.317C435.767 129.549 435.918 129.79 436.058 130.042C435.555 129.038 434.903 128.297 434.113 127.77C434.056 127.731 433.995 127.698 433.935 127.661ZM277.387 44.5881C277.387 36.2754 275.83 29.3858 272.808 23.8414C269.775 18.2785 265.496 14.0493 259.944 11.1199L259.933 11.1148C254.489 8.1891 247.863 6.68482 239.989 6.68482C232.035 6.68482 225.145 8.33826 219.264 11.5848C213.418 14.8121 208.806 19.6564 205.435 26.1929C202.188 32.591 200.513 40.7722 200.513 50.8216C200.513 60.6241 202.39 68.6121 206.029 74.8835C209.691 81.1939 214.703 85.9036 221.089 89.0523L222.308 89.6105C228.463 92.3094 235.518 93.6791 243.504 93.6791C250.13 93.679 255.689 93.1513 260.21 92.1232L260.254 92.1147C264.54 91.2569 268.599 89.9146 272.436 88.0937V73.5075C268.321 75.3328 264.306 76.7561 260.386 77.7594C260.374 77.7625 260.361 77.765 260.349 77.7678C255.618 78.8687 250.372 79.4119 244.621 79.4119C237.568 79.4119 231.812 77.3852 227.579 73.1495L227.562 73.1309C223.462 68.9105 221.385 63.1817 221.161 56.1508C221.147 55.6809 221.323 55.2244 221.65 54.8868C221.977 54.549 222.428 54.3591 222.898 54.3591H277.387V44.5881ZM476.743 44.5881C476.743 36.2754 475.185 29.3858 472.163 23.8414C469.131 18.2785 464.851 14.0493 459.299 11.1199L459.289 11.1148C453.844 8.1891 447.218 6.68482 439.344 6.68482C431.39 6.68482 424.5 8.33826 418.619 11.5848C412.774 14.8121 408.161 19.6564 404.79 26.1929C401.543 32.591 399.868 40.7722 399.868 50.8216C399.868 60.6241 401.745 68.6121 405.384 74.8835C409.046 81.1939 414.058 85.9036 420.444 89.0523L421.663 89.6105C427.818 92.3094 434.873 93.6791 442.859 93.6791C449.485 93.679 455.045 93.1513 459.565 92.1232L459.609 92.1147C463.895 91.2569 467.954 89.9146 471.792 88.0937V73.5075C467.676 75.3328 463.661 76.7561 459.741 77.7594C459.729 77.7625 459.716 77.765 459.704 77.7678C454.973 78.8687 449.727 79.4119 443.976 79.4119C436.923 79.4119 431.167 77.3852 426.934 73.1495L426.917 73.1309C422.817 68.9105 420.74 63.1817 420.517 56.1508C420.502 55.6809 420.678 55.2244 421.005 54.8868C421.332 54.549 421.783 54.3591 422.253 54.3591H476.743V44.5881ZM377.192 36.9158C377.192 25.9815 374.434 18.4654 369.311 13.9193L369.298 13.9075C364.043 9.14506 356.985 6.68491 347.941 6.68482C344.475 6.68482 341.119 7.14411 337.867 8.05911C337.851 8.06365 337.835 8.06861 337.818 8.07268C334.605 8.8766 331.711 10.1779 329.122 11.9716C329.109 11.9803 329.096 11.9887 329.083 11.997C326.533 13.6654 324.359 15.8822 322.565 18.6751C322.246 19.172 321.696 19.4724 321.105 19.4725H319.827C319.052 19.4724 318.37 18.9577 318.157 18.2119L315.322 8.28306H300.159V92.0808H320.486V52.7405C320.486 43.3578 321.825 35.9368 324.683 30.6653L324.978 30.136C328.091 24.7608 333.638 22.2313 341.072 22.2313C346.374 22.2313 350.552 23.9872 353.197 27.7674C355.735 31.2902 356.864 36.4067 356.864 42.8303V92.0808H377.192V36.9158ZM519.842 49.3828C519.842 45.0619 520.505 41.3318 521.919 38.2663L521.93 38.2392C523.417 35.1491 525.392 32.6304 527.873 30.7383C527.883 30.7307 527.894 30.7236 527.904 30.7162C530.411 28.8913 533.202 27.5789 536.259 26.7783C539.3 25.8769 542.448 25.4278 545.699 25.4278C546.849 25.4278 548.133 25.5418 549.542 25.7552C550.115 25.7968 550.65 25.8522 551.145 25.913L552.627 7.03602C552.024 6.95983 551.328 6.89388 550.534 6.84091C548.963 6.73607 547.619 6.68483 546.497 6.68482C542.902 6.68482 539.524 7.38066 536.348 8.76831C533.223 10.1807 530.461 12.0431 528.051 14.3537C525.612 16.6927 523.586 19.2798 521.968 22.1142C521.659 22.6552 521.083 22.9895 520.46 22.9897H519.341C518.538 22.9894 517.839 22.4376 517.653 21.6561L514.458 8.28306H499.514V92.0808H519.842V49.3828ZM621.008 50.5026C621.008 44.3111 620.375 39.4563 619.18 35.8673C617.992 32.3014 616.224 29.9068 613.98 28.4699C613.966 28.4613 613.954 28.4516 613.941 28.4427C611.646 26.8814 608.556 26.0267 604.534 26.0267C601.139 26.0267 598.393 26.9397 596.187 28.687L596.18 28.6938C594.086 30.334 592.383 32.9174 591.178 36.6223L591.18 36.624C590.076 40.2388 589.498 44.9017 589.498 50.6621C589.498 59.2599 590.868 65.415 593.37 69.3745L593.835 70.0464C596.236 73.2946 599.815 74.9785 604.853 74.9785C607.786 74.9785 610.238 74.624 612.244 73.9622C614.183 73.2185 615.717 72.081 616.891 70.5452L616.899 70.5333C618.208 68.8497 619.239 66.6356 619.941 63.8264C620.642 61.0221 621.008 57.5488 621.008 53.3784V50.5026ZM240.148 20.1529C244.12 20.1529 247.563 21.0066 250.362 22.8336C253.094 24.6164 255.118 27.0587 256.42 30.1139L256.675 30.6857C257.901 33.5702 258.497 36.7753 258.497 40.2718C258.497 41.2312 257.72 42.009 256.761 42.0092H223.376C222.89 42.009 222.426 41.8055 222.097 41.4476C221.769 41.0896 221.605 40.6101 221.646 40.1259C222.197 33.6258 224.035 28.5249 227.42 25.1376C227.427 25.1306 227.435 25.1242 227.442 25.1173C230.877 21.7987 235.152 20.1529 240.148 20.1529ZM439.503 20.1529C443.475 20.1529 446.918 21.0066 449.717 22.8336C452.449 24.6164 454.473 27.0587 455.775 30.1139L456.03 30.6857C457.256 33.5701 457.852 36.7752 457.852 40.2718C457.852 41.2312 457.075 42.009 456.116 42.0092H422.731C422.245 42.009 421.781 41.8055 421.453 41.4476C421.124 41.0896 420.961 40.6101 421.002 40.1259C421.552 33.6258 423.39 28.5249 426.775 25.1376C426.782 25.1306 426.79 25.1242 426.797 25.1173C430.232 21.7987 434.508 20.1529 439.503 20.1529ZM439.503 23.6276C435.341 23.6277 431.951 24.9681 429.21 27.6164C426.919 29.921 425.346 33.4867 424.669 38.5344H454.322C454.147 35.9447 453.573 33.6294 452.623 31.5696C452.616 31.5527 452.607 31.5359 452.6 31.5187C451.559 29.0572 449.971 27.1472 447.82 25.7433C445.721 24.3736 442.985 23.6276 439.503 23.6276ZM240.148 23.6276C235.986 23.6277 232.596 24.9681 229.855 27.6164C227.564 29.921 225.991 33.4867 225.314 38.5344H254.967C254.792 35.9447 254.218 33.6293 253.268 31.5696C253.26 31.5527 253.252 31.5359 253.245 31.5187C252.204 29.0572 250.616 27.1472 248.465 25.7433C246.366 24.3736 243.63 23.6276 240.148 23.6276ZM204.14 140.468C204.14 142.811 204.589 144.718 205.407 146.255C206.288 147.829 207.433 148.999 208.843 149.815C210.331 150.607 211.944 151.007 213.711 151.007C215.192 151.007 216.568 150.584 217.877 149.699L217.896 149.687C219.264 148.787 220.379 147.554 221.238 145.948C221.967 144.583 222.394 143.025 222.489 141.245L222.509 140.468L222.489 139.691C222.394 137.91 221.967 136.352 221.238 134.987C220.379 133.381 219.264 132.149 217.896 131.248L217.877 131.236C216.568 130.351 215.192 129.926 213.711 129.926C211.947 129.926 210.334 130.347 208.843 131.184L208.83 131.19C207.43 131.961 206.289 133.102 205.408 134.674C204.588 136.211 204.14 138.121 204.14 140.468ZM310.42 140.468C310.42 143.866 309.729 146.902 308.284 149.516L308.285 149.518C306.898 152.102 304.962 154.121 302.487 155.532C300.061 156.94 297.359 157.633 294.421 157.633C291.608 157.633 289.069 156.873 286.869 155.322C286.862 155.317 286.855 155.312 286.849 155.307C286.252 154.873 285.695 154.397 285.173 153.883V169.394C285.173 170.353 284.396 171.131 283.437 171.131H280.095C279.137 171.131 278.359 170.353 278.359 169.394V125.683C278.359 124.724 279.137 123.946 280.095 123.946H283.437C284.396 123.946 285.173 124.724 285.173 125.683V127.084C285.583 126.687 286.014 126.314 286.47 125.968L286.869 125.676C289.065 124.085 291.605 123.303 294.421 123.303C297.353 123.303 300.051 123.991 302.473 125.393C304.943 126.799 306.879 128.811 308.267 131.384L308.533 131.874C309.814 134.353 310.42 137.238 310.42 140.468ZM160.863 86C160.863 106.803 153.782 124.284 139.611 138.32C125.441 152.354 107.8 159.36 86.8118 159.36C65.8234 159.36 48.1824 152.354 34.0126 138.32C19.8418 124.284 12.7607 106.803 12.7607 86C12.7607 65.1966 19.8418 47.7157 34.0126 33.6803C48.1824 19.6458 65.8234 12.6401 86.8118 12.6401C107.8 12.6401 125.441 19.6458 139.611 33.6803C153.782 47.7157 160.863 65.1966 160.863 86ZM173.624 86C173.624 98.156 171.384 109.485 166.889 119.969C162.408 130.419 156.258 139.525 148.436 147.271C140.613 155.02 131.417 161.076 120.867 165.442C110.293 169.818 98.9353 172 86.8118 172C74.5492 172 63.12 169.819 52.5432 165.442C41.9927 161.076 32.7968 155.02 24.9736 147.271C17.1507 139.523 11.0344 130.414 6.62449 119.96C2.2032 109.479 0 98.1522 0 86C0 73.9854 2.20433 62.7302 6.62449 52.2519C11.0345 41.7976 17.1504 32.6877 24.9736 24.9391C32.7948 17.1927 41.988 11.1021 52.5347 6.66615C63.1137 2.21669 74.5457 0 86.8118 0C98.9392 0 110.3 2.21763 120.877 6.66615C131.424 11.1021 140.615 17.1928 148.436 24.9391C156.257 32.6856 162.408 41.7915 166.889 52.2417C171.383 62.7224 173.624 73.9815 173.624 86ZM624.48 53.3784C624.48 57.7326 624.099 61.5068 623.309 64.6697C622.52 67.8276 621.314 70.5153 619.641 72.6677L619.639 72.666C618.05 74.7413 615.975 76.2602 613.458 77.2198C613.435 77.2285 613.411 77.2375 613.388 77.2453C610.93 78.0651 608.073 78.4533 604.853 78.4533C598.513 78.4532 593.601 76.1053 590.459 71.268L590.449 71.2527C587.42 66.4738 586.025 59.5274 586.025 50.6621C586.025 44.7012 586.619 39.6668 587.858 35.6094L587.867 35.5805C589.216 31.4161 591.24 28.1487 594.038 25.9571C596.943 23.6591 600.478 22.5519 604.534 22.5519C609.031 22.552 612.863 23.5071 615.892 25.5686C618.952 27.543 621.111 30.679 622.473 34.7678C623.833 38.851 624.48 44.1205 624.48 50.5026V53.3784ZM565.218 50.3414C565.218 64.3032 568.055 74.9807 573.517 82.5728C579.026 89.9773 586.582 93.679 596.387 93.6791C601.375 93.6791 605.796 92.7134 609.683 90.8185C613.506 88.9551 616.849 85.8877 619.69 81.5208C620.011 81.0288 620.558 80.7321 621.145 80.7319H621.784C622.266 80.7319 622.728 80.9321 623.056 81.285C623.384 81.6379 623.551 82.1122 623.517 82.5931C623.41 84.0945 623.248 85.7992 623.037 87.7051C622.933 89.5844 622.881 91.4088 622.881 93.1785V94.9363C622.881 101.77 621.288 107.219 617.8 110.965L617.802 110.966C614.378 114.759 609.247 116.494 602.777 116.494C598.772 116.494 594.767 116.224 590.764 115.685L589.293 115.505C585.866 115.051 582.48 114.346 579.138 113.391C576.252 112.625 573.369 111.691 570.489 110.596V125.858C575.016 127.507 579.628 128.667 584.326 129.339C589.56 130.073 595.232 130.442 601.339 130.442C610.754 130.442 618.53 128.974 624.735 126.124L624.757 126.116C630.945 123.374 635.491 119.352 638.484 114.061L638.496 114.039C641.604 108.72 643.209 102.063 643.209 93.9777V8.28306H626.283L624.614 18.0286C624.471 18.8626 623.749 19.4723 622.903 19.4725H622.264C621.698 19.4725 621.167 19.1955 620.842 18.7311C618.01 14.6833 614.604 11.6884 610.626 9.69807C606.635 7.70113 602.113 6.68482 597.026 6.68482C590.424 6.68483 584.766 8.40694 579.979 11.8002L579.974 11.8036C575.3 15.0877 571.655 19.9539 569.092 26.5187L569.089 26.5272C566.529 32.9814 565.218 40.9029 565.218 50.3414ZM523.314 93.8182C523.314 94.7777 522.537 95.5556 521.578 95.5556H497.777C496.819 95.5554 496.041 94.7776 496.041 93.8182V6.54569C496.042 5.58663 496.819 4.80852 497.777 4.80832H515.828L516.123 4.83377C516.798 4.94995 517.353 5.4579 517.517 6.14189L520.372 18.0982C521.882 15.853 523.643 13.7697 525.649 11.846C528.35 9.25551 531.443 7.17347 534.92 5.60235L534.939 5.59387C538.573 4.003 542.432 3.21007 546.497 3.21007C547.718 3.21009 549.142 3.2664 550.765 3.37464C552.403 3.4839 553.779 3.65181 554.86 3.89212C555.704 4.07987 556.282 4.86005 556.214 5.72281L554.458 28.1017C554.417 28.6209 554.144 29.0939 553.717 29.3911C553.289 29.6885 552.749 29.7787 552.248 29.6355C551.68 29.4731 550.706 29.3224 549.247 29.2181C549.201 29.2147 549.154 29.2099 549.108 29.2028C547.786 28.9993 546.652 28.9025 545.699 28.9025C542.772 28.9025 539.957 29.3069 537.246 30.1105C537.227 30.1162 537.208 30.1208 537.189 30.1258C534.52 30.8181 532.112 31.9517 529.95 33.5242C527.972 35.0398 526.334 37.0962 525.059 39.7475C523.925 42.2192 523.314 45.4067 523.314 49.3828V93.8182ZM280.86 56.0965C280.86 57.0559 280.082 57.8338 279.124 57.8338H224.741C225.209 63.3359 227.013 67.5713 230.036 70.6911L230.696 71.3172C234.075 74.3473 238.655 75.9371 244.621 75.9371C250.143 75.9371 255.108 75.4163 259.527 74.3915C263.981 73.2512 268.613 71.5358 273.423 69.2337C273.961 68.9766 274.592 69.0143 275.097 69.3321C275.601 69.6502 275.909 70.2047 275.909 70.8014V89.1829C275.909 89.841 275.536 90.4428 274.948 90.7371C270.559 92.9325 265.901 94.5223 260.978 95.5114C256.128 96.6143 250.294 97.1538 243.504 97.1538C234.558 97.1538 226.574 95.5151 219.595 92.1894L219.574 92.1809C212.552 88.723 207.028 83.5256 203.026 76.6294C198.998 69.6876 197.041 61.0518 197.041 50.8216C197.041 40.4117 198.773 31.6485 202.341 24.6201L202.346 24.6117C206.004 17.5136 211.081 12.1318 217.586 8.54096C224.058 4.96777 231.544 3.21008 239.989 3.21007C248.301 3.21007 255.52 4.79758 261.576 8.05232C267.733 11.3031 272.501 16.0238 275.856 22.1787C279.223 28.3555 280.86 35.8517 280.86 44.5881V56.0965ZM480.215 56.0965C480.215 57.0559 479.438 57.8338 478.479 57.8338H424.096C424.564 63.3359 426.369 67.5713 429.391 70.6911L430.051 71.3172C433.43 74.3473 438.01 75.9371 443.976 75.9371C449.498 75.9371 454.463 75.4163 458.882 74.3915C463.336 73.2512 467.968 71.5358 472.778 69.2337C473.316 68.9766 473.948 69.0143 474.452 69.3321C474.956 69.6502 475.264 70.2047 475.264 70.8014V89.1829C475.264 89.841 474.891 90.4428 474.303 90.7371C469.915 92.9325 465.256 94.5223 460.333 95.5114C455.483 96.6143 449.65 97.1538 442.859 97.1538C433.913 97.1538 425.929 95.5151 418.95 92.1894L418.93 92.1809C411.907 88.723 406.383 83.5256 402.381 76.6294C398.353 69.6876 396.396 61.0518 396.396 50.8216C396.396 40.4117 398.128 31.6485 401.696 24.6201L401.701 24.6117C405.359 17.5136 410.437 12.1318 416.941 8.54096C423.413 4.96777 430.899 3.21008 439.344 3.21007C447.656 3.21007 454.875 4.79758 460.932 8.05232C467.088 11.3031 471.856 16.0238 475.211 22.1787C478.578 28.3555 480.215 35.8517 480.215 44.5881V56.0965ZM380.665 93.8182C380.665 94.7777 379.887 95.5556 378.928 95.5556H355.128C354.169 95.5555 353.392 94.7777 353.392 93.8182V42.8303C353.392 36.6934 352.29 32.44 350.367 29.7831C350.362 29.7758 350.357 29.7683 350.352 29.761C348.524 27.1479 345.566 25.7061 341.072 25.706C334.264 25.706 330.022 28.0198 327.748 32.2975L327.742 32.3111C325.281 36.8422 323.959 43.5904 323.959 52.7405V93.8182C323.959 94.7777 323.182 95.5556 322.223 95.5556H298.422C297.464 95.5554 296.686 94.7776 296.686 93.8182V6.54569C296.686 5.58663 297.464 4.80852 298.422 4.80832H316.632L316.917 4.83207C317.57 4.94048 318.116 5.41608 318.303 6.06893L320.863 15.0425C322.649 12.6717 324.744 10.6918 327.145 9.11443L327.701 8.73777C330.491 6.8989 333.57 5.55879 336.928 4.7133L338.269 4.3621C341.412 3.59433 344.637 3.21007 347.941 3.21007C357.631 3.21016 365.583 5.86161 371.614 11.3201C377.779 16.7906 380.665 25.4727 380.665 36.9158V93.8182Z" fill="#F58113"/>
</svg>
