<svg width="851" height="119" viewBox="0 0 851 119" fill="none" xmlns="http://www.w3.org/2000/svg">
<rect width="851" height="119" rx="6" fill="#384438"/>
<path d="M59.685 70V52.504H65.589L69.309 63.88L73.077 52.504H78.933V70H75.285L75.357 56.176L70.749 70H67.797L63.309 56.32V70H59.685ZM88.3977 70.24C87.0537 70.24 85.8537 69.96 84.7977 69.4C83.7417 68.84 82.9097 68.032 82.3017 66.976C81.7097 65.92 81.4137 64.64 81.4137 63.136C81.4137 61.68 81.6937 60.416 82.2537 59.344C82.8297 58.256 83.6297 57.416 84.6537 56.824C85.6937 56.232 86.9097 55.936 88.3017 55.936C89.7257 55.936 90.9497 56.256 91.9737 56.896C92.9977 57.536 93.7577 58.464 94.2537 59.68C94.7497 60.896 94.9177 62.384 94.7577 64.144H85.1577C85.2857 65.28 85.6297 66.104 86.1897 66.616C86.7657 67.128 87.5177 67.384 88.4457 67.384C89.2617 67.384 89.9337 67.208 90.4617 66.856C91.0057 66.488 91.3417 65.984 91.4697 65.344L94.6857 66.16C94.4937 66.976 94.1097 67.688 93.5337 68.296C92.9577 68.904 92.2297 69.384 91.3497 69.736C90.4697 70.072 89.4857 70.24 88.3977 70.24ZM88.2297 58.744C87.4137 58.744 86.7417 58.992 86.2137 59.488C85.6857 59.984 85.3417 60.72 85.1817 61.696H90.9897C90.9737 60.752 90.7177 60.024 90.2217 59.512C89.7417 59 89.0777 58.744 88.2297 58.744ZM103.421 70.24C102.077 70.24 100.877 69.96 99.8211 69.4C98.7651 68.84 97.9331 68.032 97.3251 66.976C96.7331 65.92 96.4371 64.64 96.4371 63.136C96.4371 61.68 96.7171 60.416 97.2771 59.344C97.8531 58.256 98.6531 57.416 99.6771 56.824C100.717 56.232 101.933 55.936 103.325 55.936C104.749 55.936 105.973 56.256 106.997 56.896C108.021 57.536 108.781 58.464 109.277 59.68C109.773 60.896 109.941 62.384 109.781 64.144H100.181C100.309 65.28 100.653 66.104 101.213 66.616C101.789 67.128 102.541 67.384 103.469 67.384C104.285 67.384 104.957 67.208 105.485 66.856C106.029 66.488 106.365 65.984 106.493 65.344L109.709 66.16C109.517 66.976 109.133 67.688 108.557 68.296C107.981 68.904 107.253 69.384 106.373 69.736C105.493 70.072 104.509 70.24 103.421 70.24ZM103.253 58.744C102.437 58.744 101.765 58.992 101.237 59.488C100.709 59.984 100.365 60.72 100.205 61.696H106.013C105.997 60.752 105.741 60.024 105.245 59.512C104.765 59 104.101 58.744 103.253 58.744ZM112.038 70V56.176H115.446L115.614 58.432C116.35 56.816 117.446 56.008 118.902 56.008C119.366 56.008 119.758 56.064 120.078 56.176V59.632H119.934C119.662 59.536 119.294 59.488 118.83 59.488C117.982 59.488 117.294 59.704 116.766 60.136C116.238 60.552 115.91 61.136 115.782 61.888V70H112.038ZM129.611 70L125.747 56.176H129.659L131.747 66.184L133.907 56.176H137.771L140.003 65.968L142.067 56.176H145.835L141.971 70H137.819L135.803 60.856L133.835 70H129.611ZM153.601 70.24C152.257 70.24 151.057 69.96 150.001 69.4C148.945 68.84 148.113 68.032 147.505 66.976C146.913 65.92 146.617 64.64 146.617 63.136C146.617 61.68 146.897 60.416 147.457 59.344C148.033 58.256 148.833 57.416 149.857 56.824C150.897 56.232 152.113 55.936 153.505 55.936C154.929 55.936 156.153 56.256 157.177 56.896C158.201 57.536 158.961 58.464 159.457 59.68C159.953 60.896 160.121 62.384 159.961 64.144H150.361C150.489 65.28 150.833 66.104 151.393 66.616C151.969 67.128 152.721 67.384 153.649 67.384C154.465 67.384 155.137 67.208 155.665 66.856C156.209 66.488 156.545 65.984 156.673 65.344L159.889 66.16C159.697 66.976 159.313 67.688 158.737 68.296C158.161 68.904 157.433 69.384 156.553 69.736C155.673 70.072 154.689 70.24 153.601 70.24ZM153.433 58.744C152.617 58.744 151.945 58.992 151.417 59.488C150.889 59.984 150.545 60.72 150.385 61.696H156.193C156.177 60.752 155.921 60.024 155.425 59.512C154.945 59 154.281 58.744 153.433 58.744ZM166.16 70.216C165.008 70.216 164.168 69.952 163.64 69.424C163.112 68.88 162.848 68.088 162.848 67.048V58.792L161.072 58.864V56.176L162.848 56.248V52.6L166.52 52.36V56.272L168.8 56.176V58.864L166.52 58.792V65.8C166.52 66.312 166.584 66.664 166.712 66.856C166.84 67.032 167.128 67.12 167.576 67.12C167.832 67.12 168.064 67.096 168.272 67.048C168.48 67 168.648 66.944 168.776 66.88V69.784C168.44 69.912 168.024 70.016 167.528 70.096C167.048 70.176 166.592 70.216 166.16 70.216ZM177.109 70.24C175.765 70.24 174.565 69.96 173.509 69.4C172.453 68.84 171.621 68.032 171.013 66.976C170.421 65.92 170.125 64.64 170.125 63.136C170.125 61.68 170.405 60.416 170.965 59.344C171.541 58.256 172.341 57.416 173.365 56.824C174.405 56.232 175.621 55.936 177.013 55.936C178.437 55.936 179.661 56.256 180.685 56.896C181.709 57.536 182.469 58.464 182.965 59.68C183.461 60.896 183.629 62.384 183.469 64.144H173.869C173.997 65.28 174.341 66.104 174.901 66.616C175.477 67.128 176.229 67.384 177.157 67.384C177.973 67.384 178.645 67.208 179.173 66.856C179.717 66.488 180.053 65.984 180.181 65.344L183.397 66.16C183.205 66.976 182.821 67.688 182.245 68.296C181.669 68.904 180.941 69.384 180.061 69.736C179.181 70.072 178.197 70.24 177.109 70.24ZM176.941 58.744C176.125 58.744 175.453 58.992 174.925 59.488C174.397 59.984 174.053 60.72 173.893 61.696H179.701C179.685 60.752 179.429 60.024 178.933 59.512C178.453 59 177.789 58.744 176.941 58.744ZM185.725 70V56.176H189.157L189.301 58.048C189.829 57.312 190.429 56.776 191.101 56.44C191.789 56.104 192.589 55.936 193.501 55.936C194.925 55.936 196.053 56.344 196.885 57.16C197.733 57.96 198.157 59.136 198.157 60.688V70H194.437V61.288C194.437 60.616 194.237 60.104 193.837 59.752C193.453 59.384 192.901 59.2 192.181 59.2C191.445 59.2 190.821 59.44 190.309 59.92C189.797 60.384 189.517 61.024 189.469 61.84V70H185.725ZM212.24 70.24C210.832 70.24 209.608 69.944 208.568 69.352C207.528 68.76 206.72 67.928 206.144 66.856C205.584 65.784 205.304 64.536 205.304 63.112C205.304 61.672 205.592 60.416 206.168 59.344C206.744 58.272 207.544 57.44 208.568 56.848C209.608 56.24 210.832 55.936 212.24 55.936C213.632 55.936 214.84 56.24 215.864 56.848C216.904 57.44 217.704 58.272 218.264 59.344C218.84 60.416 219.128 61.664 219.128 63.088C219.128 64.528 218.84 65.784 218.264 66.856C217.704 67.928 216.904 68.76 215.864 69.352C214.84 69.944 213.632 70.24 212.24 70.24ZM212.216 67.216C213.224 67.216 214.008 66.856 214.568 66.136C215.144 65.416 215.432 64.4 215.432 63.088C215.432 61.776 215.144 60.76 214.568 60.04C214.008 59.32 213.232 58.96 212.24 58.96C211.216 58.96 210.416 59.328 209.84 60.064C209.28 60.784 209 61.792 209 63.088C209 64.4 209.28 65.416 209.84 66.136C210.416 66.856 211.208 67.216 212.216 67.216ZM224.484 70L219.588 56.176H223.62L225.3 61.72C225.572 62.584 225.82 63.408 226.044 64.192C226.268 64.976 226.5 65.856 226.74 66.832C226.964 65.872 227.196 64.976 227.436 64.144C227.676 63.312 227.916 62.496 228.156 61.696L229.884 56.176H233.7L228.828 70H224.484ZM241.163 70.24C239.819 70.24 238.619 69.96 237.563 69.4C236.507 68.84 235.675 68.032 235.067 66.976C234.475 65.92 234.179 64.64 234.179 63.136C234.179 61.68 234.459 60.416 235.019 59.344C235.595 58.256 236.395 57.416 237.419 56.824C238.459 56.232 239.675 55.936 241.067 55.936C242.491 55.936 243.715 56.256 244.739 56.896C245.763 57.536 246.523 58.464 247.019 59.68C247.515 60.896 247.683 62.384 247.523 64.144H237.923C238.051 65.28 238.395 66.104 238.955 66.616C239.531 67.128 240.283 67.384 241.211 67.384C242.027 67.384 242.699 67.208 243.227 66.856C243.771 66.488 244.107 65.984 244.235 65.344L247.451 66.16C247.259 66.976 246.875 67.688 246.299 68.296C245.723 68.904 244.995 69.384 244.115 69.736C243.235 70.072 242.251 70.24 241.163 70.24ZM240.995 58.744C240.179 58.744 239.507 58.992 238.979 59.488C238.451 59.984 238.107 60.72 237.947 61.696H243.755C243.739 60.752 243.483 60.024 242.987 59.512C242.507 59 241.843 58.744 240.995 58.744ZM249.78 70V56.176H253.188L253.356 58.432C254.092 56.816 255.188 56.008 256.644 56.008C257.108 56.008 257.5 56.064 257.82 56.176V59.632H257.676C257.404 59.536 257.036 59.488 256.572 59.488C255.724 59.488 255.036 59.704 254.508 60.136C253.98 60.552 253.652 61.136 253.524 61.888V70H249.78ZM263.921 63.16C263.921 61.688 264.161 60.416 264.641 59.344C265.137 58.256 265.833 57.416 266.729 56.824C267.625 56.232 268.673 55.936 269.873 55.936C270.785 55.936 271.585 56.112 272.273 56.464C272.977 56.816 273.529 57.344 273.929 58.048V51.04H277.649V70H274.217L274.001 67.984C273.649 68.704 273.089 69.264 272.321 69.664C271.553 70.048 270.705 70.24 269.777 70.24C268.577 70.24 267.537 69.952 266.657 69.376C265.793 68.8 265.121 67.984 264.641 66.928C264.161 65.856 263.921 64.6 263.921 63.16ZM267.737 63.136C267.737 64.448 268.001 65.456 268.529 66.16C269.057 66.848 269.817 67.192 270.809 67.192C271.785 67.192 272.545 66.88 273.089 66.256C273.649 65.616 273.929 64.72 273.929 63.568V62.68C273.929 61.512 273.657 60.608 273.113 59.968C272.569 59.312 271.801 58.984 270.809 58.984C269.817 58.984 269.057 59.344 268.529 60.064C268.001 60.768 267.737 61.792 267.737 63.136ZM286.913 70.24C285.569 70.24 284.369 69.96 283.313 69.4C282.257 68.84 281.425 68.032 280.817 66.976C280.225 65.92 279.929 64.64 279.929 63.136C279.929 61.68 280.209 60.416 280.769 59.344C281.345 58.256 282.145 57.416 283.169 56.824C284.209 56.232 285.425 55.936 286.817 55.936C288.241 55.936 289.465 56.256 290.489 56.896C291.513 57.536 292.273 58.464 292.769 59.68C293.265 60.896 293.433 62.384 293.273 64.144H283.673C283.801 65.28 284.145 66.104 284.705 66.616C285.281 67.128 286.033 67.384 286.961 67.384C287.777 67.384 288.449 67.208 288.977 66.856C289.521 66.488 289.857 65.984 289.985 65.344L293.201 66.16C293.009 66.976 292.625 67.688 292.049 68.296C291.473 68.904 290.745 69.384 289.865 69.736C288.985 70.072 288.001 70.24 286.913 70.24ZM286.745 58.744C285.929 58.744 285.257 58.992 284.729 59.488C284.201 59.984 283.857 60.72 283.697 61.696H289.505C289.489 60.752 289.233 60.024 288.737 59.512C288.257 59 287.593 58.744 286.745 58.744ZM300.381 70V56.176H304.101V70H300.381ZM300.357 54.256V50.944H304.125V54.256H300.357ZM307.6 70V56.176H311.032L311.176 58.048C311.704 57.312 312.304 56.776 312.976 56.44C313.664 56.104 314.464 55.936 315.376 55.936C316.8 55.936 317.928 56.344 318.76 57.16C319.608 57.96 320.032 59.136 320.032 60.688V70H316.312V61.288C316.312 60.616 316.112 60.104 315.712 59.752C315.328 59.384 314.776 59.2 314.056 59.2C313.32 59.2 312.696 59.44 312.184 59.92C311.672 60.384 311.392 61.024 311.344 61.84V70H307.6ZM323.583 70V58.792L321.615 58.864V56.176L323.583 56.272V54.64C323.583 53.456 323.943 52.528 324.663 51.856C325.399 51.184 326.479 50.848 327.903 50.848C328.639 50.848 329.263 50.92 329.775 51.064V53.848H329.607C329.431 53.752 329.167 53.704 328.815 53.704C328.303 53.704 327.911 53.816 327.639 54.04C327.367 54.248 327.231 54.632 327.231 55.192V56.272L329.823 56.176V58.864L327.231 58.792V70H323.583ZM337.42 70.24C336.012 70.24 334.788 69.944 333.748 69.352C332.708 68.76 331.9 67.928 331.324 66.856C330.764 65.784 330.484 64.536 330.484 63.112C330.484 61.672 330.772 60.416 331.348 59.344C331.924 58.272 332.724 57.44 333.748 56.848C334.788 56.24 336.012 55.936 337.42 55.936C338.812 55.936 340.02 56.24 341.044 56.848C342.084 57.44 342.884 58.272 343.444 59.344C344.02 60.416 344.308 61.664 344.308 63.088C344.308 64.528 344.02 65.784 343.444 66.856C342.884 67.928 342.084 68.76 341.044 69.352C340.02 69.944 338.812 70.24 337.42 70.24ZM337.396 67.216C338.404 67.216 339.188 66.856 339.748 66.136C340.324 65.416 340.612 64.4 340.612 63.088C340.612 61.776 340.324 60.76 339.748 60.04C339.188 59.32 338.412 58.96 337.42 58.96C336.396 58.96 335.596 59.328 335.02 60.064C334.46 60.784 334.18 61.792 334.18 63.088C334.18 64.4 334.46 65.416 335.02 66.136C335.596 66.856 336.388 67.216 337.396 67.216ZM346.553 70V56.176H349.961L350.129 58.432C350.865 56.816 351.961 56.008 353.417 56.008C353.881 56.008 354.273 56.064 354.593 56.176V59.632H354.449C354.177 59.536 353.809 59.488 353.345 59.488C352.497 59.488 351.809 59.704 351.281 60.136C350.753 60.552 350.425 61.136 350.297 61.888V70H346.553ZM356.491 70V56.176H359.827L360.091 58.096C360.571 57.344 361.147 56.8 361.819 56.464C362.507 56.112 363.219 55.936 363.955 55.936C364.867 55.936 365.691 56.152 366.427 56.584C367.163 57 367.723 57.632 368.107 58.48C368.507 57.696 369.083 57.08 369.835 56.632C370.587 56.168 371.435 55.936 372.379 55.936C373.883 55.936 375.035 56.368 375.835 57.232C376.651 58.096 377.059 59.232 377.059 60.64V70H373.315V61.6C373.315 60.864 373.147 60.28 372.811 59.848C372.475 59.416 371.947 59.2 371.227 59.2C370.459 59.2 369.835 59.432 369.355 59.896C368.875 60.36 368.635 61.056 368.635 61.984V70H364.915V61.672C364.915 60.936 364.747 60.344 364.411 59.896C364.075 59.432 363.539 59.2 362.803 59.2C362.003 59.2 361.371 59.456 360.907 59.968C360.459 60.48 360.235 61.136 360.235 61.936V70H356.491ZM383.888 70.24C382.464 70.24 381.344 69.88 380.528 69.16C379.712 68.44 379.304 67.488 379.304 66.304C379.304 65.088 379.688 64.136 380.456 63.448C381.224 62.76 382.248 62.304 383.528 62.08L386.528 61.576C387.04 61.48 387.392 61.32 387.584 61.096C387.792 60.872 387.896 60.568 387.896 60.184C387.896 59.192 387.184 58.696 385.76 58.696C384.944 58.696 384.312 58.872 383.864 59.224C383.432 59.576 383.216 60.12 383.216 60.856L379.808 60.472C379.792 59.048 380.336 57.936 381.44 57.136C382.544 56.336 384.008 55.936 385.832 55.936C387.848 55.936 389.32 56.328 390.248 57.112C391.176 57.896 391.64 58.984 391.64 60.376V66.328C391.64 66.728 391.72 66.992 391.88 67.12C392.04 67.248 392.232 67.312 392.456 67.312C392.632 67.312 392.768 67.296 392.864 67.264H393.008V69.856C392.784 69.968 392.496 70.048 392.144 70.096C391.808 70.144 391.496 70.168 391.208 70.168C390.44 70.168 389.808 70.008 389.312 69.688C388.832 69.368 388.536 68.88 388.424 68.224L388.4 67.96C388 68.68 387.4 69.24 386.6 69.64C385.816 70.04 384.912 70.24 383.888 70.24ZM385.04 67.552C385.84 67.552 386.496 67.368 387.008 67C387.536 66.632 387.864 66.12 387.992 65.464V63.592C387.816 63.672 387.608 63.744 387.368 63.808C387.144 63.872 386.88 63.936 386.576 64L384.776 64.336C384.136 64.464 383.688 64.68 383.432 64.984C383.192 65.272 383.072 65.6 383.072 65.968C383.072 66.48 383.248 66.872 383.6 67.144C383.952 67.416 384.432 67.552 385.04 67.552ZM398.66 70.216C397.508 70.216 396.668 69.952 396.14 69.424C395.612 68.88 395.348 68.088 395.348 67.048V58.792L393.572 58.864V56.176L395.348 56.248V52.6L399.02 52.36V56.272L401.3 56.176V58.864L399.02 58.792V65.8C399.02 66.312 399.084 66.664 399.212 66.856C399.34 67.032 399.628 67.12 400.076 67.12C400.332 67.12 400.564 67.096 400.772 67.048C400.98 67 401.148 66.944 401.276 66.88V69.784C400.94 69.912 400.524 70.016 400.028 70.096C399.548 70.176 399.092 70.216 398.66 70.216ZM404.092 70V56.176H407.812V70H404.092ZM404.068 54.256V50.944H407.836V54.256H404.068ZM417.507 70.24C416.163 70.24 414.963 69.96 413.907 69.4C412.851 68.84 412.019 68.032 411.411 66.976C410.819 65.92 410.523 64.64 410.523 63.136C410.523 61.68 410.803 60.416 411.363 59.344C411.939 58.256 412.739 57.416 413.763 56.824C414.803 56.232 416.019 55.936 417.411 55.936C418.835 55.936 420.059 56.256 421.083 56.896C422.107 57.536 422.867 58.464 423.363 59.68C423.859 60.896 424.027 62.384 423.867 64.144H414.267C414.395 65.28 414.739 66.104 415.299 66.616C415.875 67.128 416.627 67.384 417.555 67.384C418.371 67.384 419.043 67.208 419.571 66.856C420.115 66.488 420.451 65.984 420.579 65.344L423.795 66.16C423.603 66.976 423.219 67.688 422.643 68.296C422.067 68.904 421.339 69.384 420.459 69.736C419.579 70.072 418.595 70.24 417.507 70.24ZM417.339 58.744C416.523 58.744 415.851 58.992 415.323 59.488C414.795 59.984 414.451 60.72 414.291 61.696H420.099C420.083 60.752 419.827 60.024 419.331 59.512C418.851 59 418.187 58.744 417.339 58.744ZM426.124 74.008V56.176H429.556L429.772 58.192C430.124 57.472 430.684 56.92 431.452 56.536C432.22 56.136 433.068 55.936 433.996 55.936C435.196 55.936 436.228 56.224 437.092 56.8C437.972 57.376 438.652 58.2 439.132 59.272C439.612 60.328 439.852 61.576 439.852 63.016C439.852 64.488 439.604 65.768 439.108 66.856C438.628 67.928 437.94 68.76 437.044 69.352C436.164 69.944 435.116 70.24 433.9 70.24C433.02 70.24 432.228 70.064 431.524 69.712C430.82 69.36 430.268 68.832 429.868 68.128V74.008H426.124ZM429.868 63.496C429.868 64.68 430.132 65.592 430.66 66.232C431.204 66.872 431.972 67.192 432.964 67.192C433.972 67.192 434.74 66.84 435.268 66.136C435.796 65.416 436.06 64.384 436.06 63.04C436.06 61.744 435.788 60.744 435.244 60.04C434.716 59.336 433.956 58.984 432.964 58.984C431.988 58.984 431.228 59.304 430.684 59.944C430.14 60.568 429.868 61.464 429.868 62.632V63.496ZM442.108 70V51.04H445.852V70H442.108ZM448.905 70V56.176H452.625V70H448.905ZM448.881 54.256V50.944H452.649V54.256H448.881ZM462.224 70.24C460.816 70.24 459.592 69.944 458.552 69.352C457.528 68.744 456.728 67.904 456.152 66.832C455.592 65.76 455.312 64.512 455.312 63.088C455.312 61.648 455.6 60.4 456.176 59.344C456.752 58.272 457.552 57.44 458.576 56.848C459.616 56.24 460.84 55.936 462.248 55.936C464.072 55.936 465.528 56.384 466.616 57.28C467.704 58.176 468.328 59.36 468.488 60.832L464.984 61.312C464.904 60.512 464.608 59.928 464.096 59.56C463.6 59.176 462.968 58.984 462.2 58.984C461.224 58.984 460.448 59.344 459.872 60.064C459.312 60.784 459.032 61.792 459.032 63.088C459.032 64.384 459.312 65.392 459.872 66.112C460.432 66.832 461.208 67.192 462.2 67.192C463.032 67.192 463.696 66.968 464.192 66.52C464.704 66.072 464.984 65.448 465.032 64.648L468.584 65.152C468.488 66.192 468.16 67.096 467.6 67.864C467.056 68.616 466.32 69.2 465.392 69.616C464.464 70.032 463.408 70.24 462.224 70.24ZM470.678 70V51.04H474.422V57.832C475.414 56.568 476.758 55.936 478.454 55.936C479.878 55.936 481.006 56.344 481.838 57.16C482.686 57.96 483.11 59.128 483.11 60.664V70H479.39V61.264C479.39 60.592 479.19 60.08 478.79 59.728C478.406 59.36 477.854 59.176 477.134 59.176C476.398 59.176 475.774 59.416 475.262 59.896C474.75 60.36 474.47 61 474.422 61.816V70H470.678ZM489.808 70.216C488.656 70.216 487.816 69.952 487.288 69.424C486.76 68.88 486.496 68.088 486.496 67.048V58.792L484.72 58.864V56.176L486.496 56.248V52.6L490.168 52.36V56.272L492.448 56.176V58.864L490.168 58.792V65.8C490.168 66.312 490.232 66.664 490.36 66.856C490.488 67.032 490.776 67.12 491.224 67.12C491.48 67.12 491.712 67.096 491.92 67.048C492.128 67 492.296 66.944 492.424 66.88V69.784C492.088 69.912 491.672 70.016 491.176 70.096C490.696 70.176 490.24 70.216 489.808 70.216ZM498.235 64.36C498.251 63.704 498.347 63.152 498.523 62.704C498.715 62.256 498.987 61.84 499.339 61.456C499.707 61.056 500.163 60.64 500.707 60.208C501.219 59.792 501.619 59.376 501.907 58.96C502.195 58.544 502.339 58.056 502.339 57.496C502.339 56.856 502.115 56.336 501.667 55.936C501.219 55.536 500.635 55.336 499.915 55.336C499.083 55.336 498.435 55.584 497.971 56.08C497.507 56.576 497.283 57.224 497.299 58.024L493.963 57.544C493.947 56.504 494.195 55.592 494.707 54.808C495.219 54.008 495.939 53.392 496.867 52.96C497.811 52.512 498.899 52.288 500.131 52.288C501.331 52.288 502.379 52.496 503.275 52.912C504.171 53.312 504.867 53.888 505.363 54.64C505.859 55.376 506.107 56.24 506.107 57.232C506.107 58.128 505.891 58.904 505.459 59.56C505.043 60.216 504.403 60.912 503.539 61.648C502.979 62.128 502.523 62.56 502.171 62.944C501.819 63.328 501.635 63.8 501.619 64.36H498.235ZM498.019 70V66.448H501.715V70H498.019Z" fill="white"/>
<rect x="575" y="29" width="209" height="61" rx="30.5" fill="#F58113"/>
<path d="M635.584 68V51.962H639.06V58.606L645.418 51.962H649.818L643.636 58.1L650.104 68H645.99L641.238 60.542L639.06 62.72V68H635.584ZM651.584 68V50.62H655.016V68H651.584ZM657.814 68V55.328H661.224V68H657.814ZM657.792 53.568V50.532H661.246V53.568H657.792ZM664.109 68V50.62H667.541V59.992L672.073 55.328H676.341L671.479 59.992L676.693 68H672.623L669.103 62.28L667.541 63.798V68H664.109ZM682.435 68V50.62H685.867V56.846C686.777 55.6873 688.009 55.108 689.563 55.108C690.869 55.108 691.903 55.482 692.665 56.23C693.443 56.9633 693.831 58.034 693.831 59.442V68H690.421V59.992C690.421 59.376 690.238 58.9067 689.871 58.584C689.519 58.2467 689.013 58.078 688.353 58.078C687.679 58.078 687.107 58.298 686.637 58.738C686.168 59.1633 685.911 59.75 685.867 60.498V68H682.435ZM697.045 68V55.328H700.455V68H697.045ZM697.023 53.568V50.532H700.477V53.568H697.023ZM709.341 68.22C708.109 68.22 707.009 67.9633 706.041 67.45C705.073 66.9367 704.311 66.196 703.753 65.228C703.211 64.26 702.939 63.0867 702.939 61.708C702.939 60.3733 703.196 59.2147 703.709 58.232C704.237 57.2347 704.971 56.4647 705.909 55.922C706.863 55.3793 707.977 55.108 709.253 55.108C710.559 55.108 711.681 55.4013 712.619 55.988C713.558 56.5747 714.255 57.4253 714.709 58.54C715.164 59.6547 715.318 61.0187 715.171 62.632H706.371C706.489 63.6733 706.804 64.4287 707.317 64.898C707.845 65.3673 708.535 65.602 709.385 65.602C710.133 65.602 710.749 65.4407 711.233 65.118C711.732 64.7807 712.04 64.3187 712.157 63.732L715.105 64.48C714.929 65.228 714.577 65.8807 714.049 66.438C713.521 66.9953 712.854 67.4353 712.047 67.758C711.241 68.066 710.339 68.22 709.341 68.22ZM709.187 57.682C708.439 57.682 707.823 57.9093 707.339 58.364C706.855 58.8187 706.54 59.4933 706.393 60.388H711.717C711.703 59.5227 711.468 58.8553 711.013 58.386C710.573 57.9167 709.965 57.682 709.187 57.682ZM717.24 68V55.328H720.364L720.518 57.396C721.193 55.9147 722.197 55.174 723.532 55.174C723.957 55.174 724.317 55.2253 724.61 55.328V58.496H724.478C724.229 58.408 723.891 58.364 723.466 58.364C722.689 58.364 722.058 58.562 721.574 58.958C721.09 59.3393 720.789 59.8747 720.672 60.564V68H717.24Z" fill="white"/>
</svg>
